<?xml version="1.0" encoding="UTF-8" standalone="no"?>
<!DOCTYPE svg PUBLIC "-//W3C//DTD SVG 1.1//EN" "http://www.w3.org/Graphics/SVG/1.1/DTD/svg11.dtd">
<svg version="1.1" xmlns="http://www.w3.org/2000/svg" xmlns:xlink="http://www.w3.org/1999/xlink" preserveAspectRatio="xMidYMid meet" viewBox="0 0 640 640" width="640" height="640"><defs><path d="M640 320C640 496.61 496.61 640 320 640C143.39 640 0 496.61 0 320C0 143.39 143.39 0 320 0C496.61 0 640 143.39 640 320Z" id="ahbjJrxKt"></path><path d="M480.23 320C480.23 408.16 408.43 479.74 320 479.74C231.57 479.74 159.77 408.16 159.77 320C159.77 231.84 231.57 160.26 320 160.26C408.43 160.26 480.23 231.84 480.23 320Z" id="cBMEj8JgJ"></path><path d="M323.9 241.09L668.77 241.09L668.77 398.91L323.9 398.91L323.9 241.09Z" id="c1dcutd1KT"></path><path d="M390.11 320C390.11 358.58 358.7 389.9 320 389.9C281.3 389.9 249.89 358.58 249.89 320C249.89 281.42 281.3 250.1 320 250.1C358.7 250.1 390.11 281.42 390.11 320Z" id="b51wo6Mq7r"></path><path d="M336.74 287.49L496.33 416.49L445.21 479.74L285.61 350.74L336.74 287.49Z" id="aThz8dHT"></path><path d="M344.11 320C344.11 333.27 333.31 344.04 320 344.04C306.69 344.04 295.89 333.27 295.89 320C295.89 306.73 306.69 295.96 320 295.96C333.31 295.96 344.11 306.73 344.11 320Z" id="foGaHBaaT"></path></defs><g><g><g><use xlink:href="#ahbjJrxKt" opacity="1" fill="#0b050f" fill-opacity="1"></use></g><g><use xlink:href="#cBMEj8JgJ" opacity="1" fill="#ffffff" fill-opacity="1"></use></g><g><use xlink:href="#c1dcutd1KT" opacity="1" fill="#ffffff" fill-opacity="1"></use></g><g><use xlink:href="#b51wo6Mq7r" opacity="1" fill="#000000" fill-opacity="1"></use></g><g><use xlink:href="#aThz8dHT" opacity="1" fill="#000000" fill-opacity="1"></use></g><g><use xlink:href="#foGaHBaaT" opacity="1" fill="#ffffff" fill-opacity="1"></use></g></g></g></svg>